<svg width="25.000000" height="25.000000" viewBox="0 0 25 25" fill="none" xmlns="http://www.w3.org/2000/svg" xmlns:xlink="http://www.w3.org/1999/xlink">
	<desc>
			Created with Pixso.
	</desc>
	<defs>
		<clipPath id="clip11_10">
			<rect id="seo 1" width="25.000000" height="25.000000" fill="white" fill-opacity="0"/>
		</clipPath>
	</defs>
	<rect id="seo 1" width="25.000000" height="25.000000" fill="#FFFFFF" fill-opacity="0"/>
	<g clip-path="url(#clip11_10)">
		<path id="Vector" d="M11.25 3.75L22.5 3.75L22.5 4.58337L11.25 4.58337L11.25 3.75Z" fill="#000000" fill-opacity="1.000000" fill-rule="evenodd"/>
		<path id="Vector" d="M11.25 5.41663L18.3333 5.41663L18.3333 6.25L11.25 6.25L11.25 5.41663Z" fill="#000000" fill-opacity="1.000000" fill-rule="evenodd"/>
		<path id="Vector" d="M11.25 7.08337L18.3333 7.08337L18.3333 7.91675L11.25 7.91675L11.25 7.08337Z" fill="#000000" fill-opacity="1.000000" fill-rule="evenodd"/>
		<path id="Vector" d="M14.5833 2.08337L22.4999 2.08337L22.4999 2.91675L14.5833 2.91675L14.5833 2.08337Z" fill="#000000" fill-opacity="1.000000" fill-rule="evenodd"/>
		<path id="Vector" d="M12.9167 2.08337L13.7501 2.08337L13.7501 2.91675L12.9167 2.91675L12.9167 2.08337Z" fill="#000000" fill-opacity="1.000000" fill-rule="evenodd"/>
		<path id="Vector" d="M12.0833 16.6667L12.9166 16.6667L12.9166 17.5001L12.0833 17.5001L12.0833 16.6667Z" fill="#000000" fill-opacity="1.000000" fill-rule="evenodd"/>
		<path id="Vector" d="M6.96124 2.79456L6.37207 2.20544L5.53876 3.03882C5.3761 3.20154 5.3761 3.46521 5.53876 3.62793L6.37207 4.4613L6.96124 3.87207L6.42249 3.33337L6.96124 2.79456Z" fill="#000000" fill-opacity="1.000000" fill-rule="nonzero"/>
		<path id="Vector" d="M10.2946 3.03882L9.46124 2.20544L8.87207 2.79456L9.41083 3.33337L8.87207 3.87207L9.46124 4.4613L10.2946 3.62793C10.4572 3.46521 10.4572 3.20154 10.2946 3.03882Z" fill="#000000" fill-opacity="1.000000" fill-rule="nonzero"/>
		<path id="Vector" d="M7.10425 4.45105L7.93835 1.95105L8.72845 2.21472L7.89435 4.71472L7.10425 4.45105Z" fill="#000000" fill-opacity="1.000000" fill-rule="evenodd"/>
		<path id="Vector" d="M21.6667 12.9166L21.6667 9.58337L20.8334 9.58337L20.8334 12.9166L20.0001 12.9166L20.0001 8.75L19.1667 8.75L19.1667 12.9166L18.3334 12.9166L18.3334 10.8334L17.5001 10.8334L17.5001 12.9166L16.6667 12.9166L16.6667 10.4166L15.8334 10.4166L15.8334 12.9166L15.0001 12.9166L15.0001 11.25L14.1667 11.25L14.1667 12.9166L13.3334 12.9166L13.3334 13.75L22.5001 13.75L22.5001 12.9166L21.6667 12.9166Z" fill="#000000" fill-opacity="1.000000" fill-rule="nonzero"/>
		<path id="Vector" d="M22.0834 0L2.91675 0C1.53662 0.00134277 0.418091 1.11987 0.416748 2.5L0.416748 10.6775L0.416748 10.6813L0.416748 15.4166L0.416748 16.6666C0.418091 18.0469 1.53662 19.1653 2.91675 19.1666L8.07593 19.1666L6.40924 22.5L4.16675 22.5C3.47638 22.5 2.91675 23.0597 2.91675 23.75C2.91675 24.4403 3.47638 25 4.16675 25L20.8334 25C21.5238 25 22.0834 24.4403 22.0834 23.75C22.0834 23.0597 21.5238 22.5 20.8334 22.5L18.5909 22.5L16.9243 19.1666L22.0834 19.1666C23.4636 19.1653 24.582 18.0469 24.5834 16.6666L24.5834 2.5C24.582 1.11987 23.4636 0.00134277 22.0834 0ZM1.25006 5.86255L2.19714 6.98999C2.27631 7.08435 2.39319 7.13879 2.51636 7.13879L3.79175 7.13879C3.91486 7.13879 4.03174 7.08435 4.1109 6.98999L5.05841 5.86255L5.99341 6.16626L6.09674 7.63416C6.10529 7.75696 6.16766 7.86963 6.26715 7.94214L7.29926 8.69214C7.39911 8.76416 7.52557 8.7887 7.64508 8.75916L9.0755 8.40381L9.65381 9.19922L8.87427 10.4492C8.80969 10.554 8.79474 10.6819 8.83344 10.7987L9.22803 12.0117C9.26599 12.1287 9.35364 12.2229 9.46759 12.2692L10.8334 12.8229L10.8334 13.8063L9.46674 14.36C9.35254 14.406 9.26471 14.5006 9.22717 14.6179L9.10217 15L6.70172 15C7.6355 13.045 6.80756 10.7031 4.8526 9.76941C3.70428 9.22095 2.36127 9.26355 1.25006 9.88379L1.25006 5.86255ZM1.25006 10.875C2.59778 9.82361 4.54266 10.0638 5.59406 11.4116C6.40582 12.452 6.46844 13.8929 5.75006 15L1.25006 15L1.25006 10.875ZM20.8334 23.3334C21.0635 23.3334 21.2501 23.5199 21.2501 23.75C21.2501 23.9801 21.0635 24.1666 20.8334 24.1666L4.16675 24.1666C3.93665 24.1666 3.75006 23.9801 3.75006 23.75C3.75006 23.5199 3.93665 23.3334 4.16675 23.3334L20.8334 23.3334ZM17.6592 22.5L7.34094 22.5L9.00757 19.1666L15.9926 19.1666L17.6592 22.5ZM23.7501 16.6666C23.7501 17.5872 23.0039 18.3334 22.0834 18.3334L2.91675 18.3334C1.99628 18.3334 1.25006 17.5872 1.25006 16.6666L1.25006 15.8334L5.96759 15.8334L5.97131 15.8334L23.7501 15.8334L23.7501 16.6666ZM23.7501 15L10.1063 15L11.4067 14.4729C11.5638 14.4092 11.6666 14.2566 11.6667 14.087L11.6667 12.5416C11.6668 12.3719 11.564 12.2192 11.4067 12.1554L9.95844 11.5696L9.68427 10.7258L10.5101 9.40088C10.5997 9.25684 10.5931 9.073 10.4934 8.93579L9.58508 7.68579C9.48535 7.54846 9.31232 7.48535 9.14758 7.52625L7.63257 7.90125L6.91675 7.38123L6.80719 5.82703C6.79523 5.65771 6.68164 5.51245 6.52008 5.45996L5.05133 4.98254C4.88971 4.93103 4.71307 4.98181 4.60339 5.11121L3.60052 6.30505L2.71173 6.30505L1.70844 5.11121C1.59875 4.98169 1.42181 4.93079 1.26007 4.98254L1.25006 4.98621L1.25006 2.5C1.25006 1.57959 1.99628 0.833374 2.91675 0.833374L22.0834 0.833374C23.0039 0.833374 23.7501 1.57959 23.7501 2.5L23.7501 15Z" fill="#000000" fill-opacity="1.000000" fill-rule="nonzero"/>
	</g>
</svg>
