<svg width="25.000000" height="25.000000" viewBox="0 0 25 25" fill="none" xmlns="http://www.w3.org/2000/svg" xmlns:xlink="http://www.w3.org/1999/xlink">
	<desc>
			Created with Pixso.
	</desc>
	<defs>
		<clipPath id="clip11_2">
			<rect width="25.000000" height="25.000000" fill="white" fill-opacity="0"/>
		</clipPath>
	</defs>
	<rect width="25.000000" height="25.000000" fill="#FFFFFF" fill-opacity="0"/>
	<g clip-path="url(#clip11_2)">
		<path d="M20.2645 19.1458L19.6144 19.5793L21.1449 21.875L3.85468 21.875L5.67773 19.1406L15.6024 19.1406L15.6024 18.3594L5.46875 18.3594C5.40448 18.3594 5.34113 18.3752 5.28448 18.4055C5.22778 18.4359 5.17944 18.4797 5.14374 18.5332L2.79999 22.0488C2.75732 22.113 2.7345 22.1885 2.73438 22.2656L2.73438 23.4375C2.73438 23.6447 2.81671 23.8434 2.9632 23.9899C3.10968 24.1365 3.30841 24.2188 3.51562 24.2188L21.4844 24.2188C21.6916 24.2188 21.8903 24.1365 22.0368 23.9899C22.1833 23.8434 22.2656 23.6447 22.2656 23.4375L22.2656 22.2656C22.2655 22.1885 22.2427 22.113 22.2 22.0488L20.2645 19.1458ZM3.51562 23.4375L3.51562 22.6562L21.4844 22.6562L21.4844 23.4375L3.51562 23.4375Z" fill="#000000" fill-opacity="1.000000" fill-rule="nonzero"/>
		<path d="M20.3125 0.78125L4.6875 0.78125C4.37701 0.782227 4.07947 0.905884 3.85986 1.12549C3.64032 1.34509 3.51654 1.64258 3.51562 1.95312L3.51562 12.1094C3.51654 12.4199 3.64032 12.7174 3.85986 12.937C4.07947 13.1566 4.37701 13.2803 4.6875 13.2812L10.1562 13.2812L10.1562 14.8438L8.59375 14.8438C8.49017 14.8438 8.39081 14.8849 8.31757 14.9581C8.24426 15.0314 8.20312 15.1307 8.20312 15.2344L8.20312 16.7969C8.20312 16.9005 8.24426 16.9999 8.31757 17.0731C8.39081 17.1464 8.49017 17.1875 8.59375 17.1875L16.4062 17.1875C16.5098 17.1875 16.6092 17.1464 16.6825 17.0731C16.7557 16.9999 16.7969 16.9005 16.7969 16.7969L16.7969 15.2344C16.7969 15.1307 16.7557 15.0314 16.6825 14.9581C16.6092 14.8849 16.5098 14.8438 16.4062 14.8438L14.8438 14.8438L14.8438 13.2812L20.3125 13.2812C20.623 13.2803 20.9205 13.1566 21.1401 12.937C21.3597 12.7174 21.4835 12.4199 21.4844 12.1094L21.4844 1.95312C21.4835 1.64258 21.3597 1.34509 21.1401 1.12549C20.9205 0.905884 20.623 0.782227 20.3125 0.78125ZM16.0156 15.625L16.0156 16.4062L8.98438 16.4062L8.98438 15.625L16.0156 15.625ZM10.9375 14.8438L10.9375 13.2812L14.0625 13.2812L14.0625 14.8438L10.9375 14.8438ZM20.7031 12.1094C20.7031 12.213 20.662 12.3124 20.5887 12.3856C20.5154 12.4589 20.4161 12.5 20.3125 12.5L4.6875 12.5C4.58392 12.5 4.48456 12.4589 4.41132 12.3856C4.33801 12.3124 4.29688 12.213 4.29688 12.1094L4.29688 10.9375L20.7031 10.9375L20.7031 12.1094ZM20.7031 10.1562L4.29688 10.1562L4.29688 1.95312C4.29688 1.84949 4.33801 1.75012 4.41132 1.67688C4.48456 1.60364 4.58392 1.5625 4.6875 1.5625L20.3125 1.5625C20.4161 1.5625 20.5154 1.60364 20.5887 1.67688C20.662 1.75012 20.7031 1.84949 20.7031 1.95312L20.7031 10.1562Z" fill="#000000" fill-opacity="1.000000" fill-rule="nonzero"/>
		<path d="M18.3594 11.3281L19.1406 11.3281L19.1406 12.1094L18.3594 12.1094L18.3594 11.3281Z" fill="#000000" fill-opacity="1.000000" fill-rule="nonzero"/>
		<path d="M8.98438 9.375L10.5469 9.375C10.6505 9.375 10.7498 9.33386 10.8231 9.26062C10.8964 9.18738 10.9375 9.08801 10.9375 8.98438L10.9375 8.59375L14.0625 8.59375L14.0625 8.98438C14.0625 9.08801 14.1036 9.18738 14.1769 9.26062C14.2502 9.33386 14.3495 9.375 14.4531 9.375L16.0156 9.375C16.1192 9.375 16.2186 9.33386 16.2918 9.26062C16.3651 9.18738 16.4062 9.08801 16.4062 8.98438L16.4062 7.42188C16.4062 7.31824 16.3651 7.21887 16.2918 7.14563C16.2186 7.07239 16.1192 7.03125 16.0156 7.03125L15.625 7.03125L15.625 4.6875L16.0156 4.6875C16.1192 4.6875 16.2186 4.64636 16.2918 4.57312C16.3651 4.49988 16.4062 4.40051 16.4062 4.29688L16.4062 2.73438C16.4062 2.63074 16.3651 2.53137 16.2918 2.45813C16.2186 2.38489 16.1192 2.34375 16.0156 2.34375L14.4531 2.34375C14.3495 2.34375 14.2502 2.38489 14.1769 2.45813C14.1036 2.53137 14.0625 2.63074 14.0625 2.73438L14.0625 3.125L10.9375 3.125L10.9375 2.73438C10.9375 2.63074 10.8964 2.53137 10.8231 2.45813C10.7498 2.38489 10.6505 2.34375 10.5469 2.34375L8.98438 2.34375C8.8808 2.34375 8.78143 2.38489 8.70819 2.45813C8.63489 2.53137 8.59375 2.63074 8.59375 2.73438L8.59375 4.29688C8.59375 4.40051 8.63489 4.49988 8.70819 4.57312C8.78143 4.64636 8.8808 4.6875 8.98438 4.6875L9.375 4.6875L9.375 7.03125L8.98438 7.03125C8.8808 7.03125 8.78143 7.07239 8.70819 7.14563C8.63489 7.21887 8.59375 7.31824 8.59375 7.42188L8.59375 8.98438C8.59375 9.08801 8.63489 9.18738 8.70819 9.26062C8.78143 9.33386 8.8808 9.375 8.98438 9.375ZM15.625 8.59375L14.8438 8.59375L14.8438 7.8125L15.625 7.8125L15.625 8.59375ZM14.8438 3.125L15.625 3.125L15.625 3.90625L14.8438 3.90625L14.8438 3.125ZM9.375 3.125L10.1562 3.125L10.1562 3.90625L9.375 3.90625L9.375 3.125ZM10.1562 4.6875L10.5469 4.6875C10.6505 4.6875 10.7498 4.64636 10.8231 4.57312C10.8964 4.49988 10.9375 4.40051 10.9375 4.29688L10.9375 3.90625L14.0625 3.90625L14.0625 4.29688C14.0625 4.40051 14.1036 4.49988 14.1769 4.57312C14.2502 4.64636 14.3495 4.6875 14.4531 4.6875L14.8438 4.6875L14.8438 7.03125L14.4531 7.03125C14.3495 7.03125 14.2502 7.07239 14.1769 7.14563C14.1036 7.21887 14.0625 7.31824 14.0625 7.42188L14.0625 7.8125L10.9375 7.8125L10.9375 7.42188C10.9375 7.31824 10.8964 7.21887 10.8231 7.14563C10.7498 7.07239 10.6505 7.03125 10.5469 7.03125L10.1562 7.03125L10.1562 4.6875ZM9.375 7.8125L10.1562 7.8125L10.1562 8.59375L9.375 8.59375L9.375 7.8125Z" fill="#000000" fill-opacity="1.000000" fill-rule="nonzero"/>
		<path d="M8.98438 20.3125L14.4531 20.3125L14.4531 21.0938L8.98438 21.0938L8.98438 20.3125Z" fill="#000000" fill-opacity="1.000000" fill-rule="nonzero"/>
		<path d="M23.3867 14.3906L22.2812 13.2852C22.2449 13.2488 22.2016 13.2201 22.154 13.2006C22.1064 13.1812 22.0554 13.1714 22.0039 13.1719C21.9531 13.1714 21.9026 13.1812 21.8557 13.2007C21.8087 13.2201 21.7661 13.2489 21.7305 13.2852L16.4805 18.5352C16.4377 18.5779 16.4055 18.63 16.3867 18.6875L16.1094 19.5156C16.087 19.5842 16.084 19.6577 16.1005 19.728C16.1171 19.7982 16.1525 19.8625 16.2031 19.9141L15.6523 20.4688L16.2031 21.0195L16.7578 20.4688C16.7936 20.5048 16.8362 20.5333 16.8832 20.5527C16.9301 20.5723 16.9805 20.5822 17.0312 20.582C17.0737 20.5815 17.1157 20.5751 17.1562 20.5625L17.9844 20.2852C18.0418 20.2664 18.0941 20.2343 18.1367 20.1914L23.3867 14.9414C23.4595 14.8683 23.5003 14.7693 23.5003 14.666C23.5003 14.5629 23.4595 14.4639 23.3867 14.3906ZM17.6523 19.5742L17.1406 19.7422L16.9258 19.5312L17.0977 19.0195L20.8984 15.2188L21.4531 15.7695L17.6523 19.5742ZM22.0039 15.2188L21.4531 14.668L22.0039 14.1133L22.5586 14.668L22.0039 15.2188Z" fill="#000000" fill-opacity="1.000000" fill-rule="nonzero"/>
	</g>
</svg>
