<svg width="46.000122" height="65.000000" viewBox="0 0 46.0001 65" fill="none" xmlns="http://www.w3.org/2000/svg" xmlns:xlink="http://www.w3.org/1999/xlink">
	<desc>
			Created with Pixso.
	</desc>
	<defs/>
	<path id="path16" d="M22.9719 65L4.18634 59.7793L0 12.7742L46.0001 12.7742L41.8093 59.7722L22.9719 65Z" fill="#4353AD" fill-opacity="1.000000" fill-rule="nonzero"/>
	<path id="path20" d="M38.2216 56.7795L41.8025 16.6177L22.9999 16.6177L22.9999 61.0039L38.2216 56.7795Z" fill="#485FB5" fill-opacity="1.000000" fill-rule="nonzero"/>
	<path id="path24" d="M23 49.0234L22.9748 49.03L16.5614 47.2964L16.1513 42.6987L10.3705 42.6987L11.1772 51.7505L22.9735 55.0288L23 55.0215L23 49.0234ZM8.55994 22.3828L9.0834 28.1475L23 28.1475L23 22.3828L8.55994 22.3828ZM9.59708 34.051L10.1132 39.8159L23 39.8159L23 34.051L9.59708 34.051Z" fill="#EDEDED" fill-opacity="1.000000" fill-rule="nonzero"/>
	<path id="path28" d="M27.5654 0L34.5403 0L34.5403 2.53906L30.4824 2.53906L30.4824 3.04712L34.5403 3.04712L34.5403 8.88672L27.5654 8.88672L27.5654 6.22046L31.6236 6.22046L31.6236 5.71289L27.5656 5.71289L27.5656 0L27.5654 0ZM19.1956 0L26.1703 0L26.1703 2.53906L22.1124 2.53906L22.1124 3.04712L26.1703 3.04712L26.1703 8.88672L19.1958 8.88672L19.1958 6.22046L23.2538 6.22046L23.2538 5.71289L19.1955 5.71289L19.1955 0L19.1956 0ZM10.8259 0L17.8005 0L17.8005 2.91992L13.7427 2.91992L13.7427 5.84009L17.8009 5.84009L17.8009 8.76001L10.8259 8.76001L10.8259 0Z" fill="#100F0D" fill-opacity="1.000000" fill-rule="nonzero"/>
	<path id="path32" d="M36.3662 34.0513L37.4057 22.3828L22.9802 22.3828L22.9802 28.1477L31.0947 28.1477L30.5708 34.0513L22.9802 34.0513L22.9802 39.8162L30.0715 39.8162L29.4026 47.2932L22.98 49.0283L22.98 55.0261L34.7856 51.7507L34.872 50.7769L36.2257 35.5991L36.3662 34.0513Z" fill="#FFFFFF" fill-opacity="1.000000" fill-rule="nonzero"/>
</svg>
