<svg width="45.774643" height="65.000000" viewBox="0 0 45.7746 65" fill="none" xmlns="http://www.w3.org/2000/svg" xmlns:xlink="http://www.w3.org/1999/xlink">
	<desc>
			Created with Pixso.
	</desc>
	<defs/>
	<path id="path14" d="M4.1657 59.7793L0 12.7739L45.7746 12.7739L41.6044 59.772L22.8592 65L4.1657 59.7793Z" fill="#E53D20" fill-opacity="1.000000" fill-rule="nonzero"/>
	<path id="path16" d="M22.8873 61.0039L38.0343 56.7793L41.5981 16.6174L22.8873 16.6174L22.8873 61.0039Z" fill="#F15123" fill-opacity="1.000000" fill-rule="nonzero"/>
	<path id="path18" d="M22.8873 34.051L15.3044 34.051L14.7806 28.1475L22.8873 28.1475L22.8873 22.3826L22.8675 22.3826L8.51785 22.3826L8.65507 23.9292L10.0635 39.8159L22.8873 39.8159L22.8873 34.051Z" fill="#EDEDED" fill-opacity="1.000000" fill-rule="nonzero"/>
	<path id="path20" d="M22.8873 49.0232L22.8622 49.03L16.4802 47.2961L16.072 42.6985L12.9709 42.6985L10.3195 42.6985L11.1224 51.7502L22.8609 55.0286L22.8873 55.0212L22.8873 49.0232Z" fill="#EDEDED" fill-opacity="1.000000" fill-rule="nonzero"/>
	<path id="path22" d="M4.25882 0L7.17105 0L7.17105 2.89453L9.83493 2.89453L9.83493 0L12.7473 0L12.7473 8.76538L9.83505 8.76538L9.83505 5.83032L7.17117 5.83032L7.17117 8.76538L4.25903 8.76538L4.25903 0L4.25882 0Z" fill="#100F0D" fill-opacity="1.000000" fill-rule="nonzero"/>
	<path id="path24" d="M16.5769 2.90674L14.0131 2.90674L14.0131 0L22.0541 0L22.0541 2.90674L19.4892 2.90674L19.4892 8.76538L16.5771 8.76538L16.5771 2.90674L16.5769 2.90674Z" fill="#100F0D" fill-opacity="1.000000" fill-rule="nonzero"/>
	<path id="path26" d="M23.3303 0L26.3669 0L28.2348 3.07983L30.1009 0L33.1386 0L33.1386 8.76538L30.2384 8.76538L30.2384 4.4209L28.2348 7.53735L28.1848 7.53735L26.1799 4.4209L26.1799 8.76538L23.3303 8.76538L23.3303 0Z" fill="#100F0D" fill-opacity="1.000000" fill-rule="nonzero"/>
	<path id="path28" d="M34.588 0L37.501 0L37.501 5.86816L41.5964 5.86816L41.5964 8.76538L34.588 8.76538L34.588 0Z" fill="#100F0D" fill-opacity="1.000000" fill-rule="nonzero"/>
	<path id="path30" d="M22.8675 34.051L22.8675 39.8159L29.9239 39.8159L29.2588 47.2927L22.8675 49.0281L22.8675 55.0259L34.6153 51.7505L34.7014 50.7764L36.0481 35.5991L36.1879 34.051L34.6437 34.051L22.8675 34.051Z" fill="#FFFFFF" fill-opacity="1.000000" fill-rule="nonzero"/>
	<path id="path32" d="M22.8675 22.3826L22.8675 28.1477L36.6909 28.1477L36.7093 28.1477L36.8243 26.8518L37.0854 23.9292L37.2224 22.3826L22.8675 22.3826Z" fill="#FFFFFF" fill-opacity="1.000000" fill-rule="nonzero"/>
</svg>
