<svg width="161.138916" height="36.619629" viewBox="0 0 161.139 36.6196" fill="none" xmlns="http://www.w3.org/2000/svg" xmlns:xlink="http://www.w3.org/1999/xlink">
	<desc>
			Created with Pixso.
	</desc>
	<defs/>
	<path id="Vector" d="M154.373 2.70654L161.139 2.74365C161.139 2.74365 148.56 19.7888 147.533 21.178C147.199 21.6279 146.692 22.113 146.435 22.7144C145.786 24.2263 145.119 27.5425 145.119 27.5425L138.928 27.573C138.928 27.573 139.891 24.1165 139.852 22.2754C139.817 20.6667 138.995 19.0605 138.535 17.4473C138.069 15.8147 137.438 12.6191 137.438 12.6191L143.802 12.6191L144.68 16.1306L154.373 2.70654Z" fill="#1A1918" fill-opacity="1.000000" fill-rule="evenodd"/>
	<path id="Vector" d="M141.561 6.30103C142.81 7.05396 143.576 11.2061 143.576 11.2061C143.576 11.2061 137.043 11.3025 133.487 11.3025L130.415 11.3025L126.684 27.5422L120.979 27.5422C120.979 27.5422 124.529 9.8938 125.368 6.69385C125.64 5.6582 127.229 5.83569 129.912 5.83569L134.198 5.83569C136.966 5.83569 140.201 5.48267 141.561 6.30103Z" fill="#1A1918" fill-opacity="1.000000" fill-rule="evenodd"/>
	<path id="Vector" d="M114.998 14.2104C114.998 14.2104 115.176 13.168 114.395 11.9609C113.728 10.9319 113.111 10.6926 111.356 10.6377C106.398 10.4819 106.494 14.1558 106.494 14.1558L114.998 14.2104ZM120.375 10.0037C121.102 12.624 119.717 18.7817 119.717 18.7817C119.717 18.7817 112.485 18.6609 108.525 18.7817C107.293 18.8193 105.819 18.6479 105.452 19.2207C104.936 20.0239 105.641 21.2595 106.237 21.7817C106.925 22.3831 108.263 22.4512 108.744 22.5125C111.959 22.9209 118.688 22.6179 118.688 22.6179L117.522 27.7793C117.522 27.7793 108.013 28.2559 103.257 27.1208C102.318 26.8972 101.438 26.4453 100.843 25.8042C100.681 25.6289 100.54 25.3896 100.387 25.1833C100.264 25.0186 99.9066 24.4768 99.746 24.0486C98.6599 21.1541 99.8734 15.6084 101.063 12.637C101.201 12.2925 101.374 11.856 101.557 11.4849C101.785 11.022 101.978 10.4998 102.16 10.2229C102.283 10.0322 102.435 9.90918 102.562 9.72925C102.709 9.51636 102.88 9.31006 103.038 9.12598C103.477 8.6167 103.975 8.25659 104.574 7.80933C106.556 6.32568 110.142 5.17334 114.45 5.6145C116.072 5.78125 118.521 6.3606 119.717 8.02856C120.037 8.47412 120.195 9.3584 120.375 10.0037Z" fill="#1A1918" fill-opacity="1.000000" fill-rule="evenodd"/>
	<path id="Vector" d="M94.2048 5.81616L99.7374 5.7832C99.7374 5.7832 96.6542 20.4099 95.0828 27.5425L88.7184 27.5425C84.2701 27.5425 80.3089 28.0933 78.6235 24.9087C76.9887 21.8169 78.5489 16.7319 79.2819 13.2776C79.7999 10.8328 80.8907 5.83594 80.8907 5.83594L86.6229 5.7832C86.6229 5.7832 85.0032 13.5627 84.3293 17.4473C84.088 18.8386 83.5901 20.1487 84.11 21.178C84.6038 22.157 85.295 22.2271 87.4017 22.2754C88.069 22.2908 90.2548 22.2754 90.2548 22.2754L94.2048 5.81616Z" fill="#1A1918" fill-opacity="1.000000" fill-rule="evenodd"/>
	<path id="Vector" d="M68.3091 16.3499C68.8884 14.2915 69.7333 12.0596 69.6257 10.2051C69.5096 8.22144 67.8462 6.41528 66.773 6.03564C63.5405 4.89429 60.5142 6.48975 59.3116 7.79102C57.7554 9.47681 57.2287 11.4453 56.6779 14.1555C56.2677 16.1677 55.9318 18.292 56.6779 19.8613C57.9989 22.6353 62.1181 22.0295 66.5533 22.0559C67.2117 20.2915 67.756 18.3098 68.3091 16.3499ZM75.9902 8.22998C76.6222 12.8254 74.1973 17.8975 72.5271 22.3081C74.2302 22.4617 75.7225 22.2842 75.83 22.4114C75.9418 22.5762 74.6887 27.6763 74.2518 27.6892C72.9001 27.7246 68.4212 27.7617 66.5533 27.7617C60.4591 27.7617 54.7577 28.1589 51.8501 25.1284C50.6694 23.8972 49.8531 21.7859 49.6554 20.3003C49.3261 17.8203 49.7388 15.0901 50.3138 12.8389C50.8339 10.8064 51.501 8.88843 52.5084 7.13281C55.0693 2.66235 59.5244 -0.655518 66.9924 0.110352C68.4407 0.259521 70.5211 0.893799 71.8204 1.64624C71.9103 1.69922 72.2244 1.94922 72.2966 1.99316C74.0523 3.11035 75.6522 5.77661 75.9902 8.22998Z" fill="#1A1918" fill-opacity="1.000000" fill-rule="evenodd"/>
	<path id="Vector" d="M49.0255 5.84253C48.6568 7.52124 48.2881 9.42432 47.8997 11.0833L41.7549 11.0833C42.2311 9.24414 42.5954 7.41602 43.0716 5.81616C45.038 5.81616 46.8661 5.84253 49.0255 5.84253Z" fill="#1A1918" fill-opacity="1.000000" fill-rule="evenodd"/>
	<path id="Vector" d="M41.5356 12.6194L47.4607 12.6194C46.6862 16.9077 45.1523 23.825 43.9496 28.6396C43.1968 31.6528 42.6943 33.8518 40.6576 35.4429C40.4754 35.5857 40.3704 35.5178 40.2189 35.6624C39.8434 36.0203 38.1075 36.4351 37.1465 36.54C35.5838 36.7092 33.8173 36.562 31.8971 36.5227C32.3996 34.6858 32.9681 32.4805 33.4158 30.8342C38.0967 31.4006 38.2153 26.9763 39.1215 22.7146C39.6461 20.2522 41.235 13.6072 41.5356 12.6194Z" fill="#1A1918" fill-opacity="1.000000" fill-rule="evenodd"/>
	<path id="Vector" d="M27.7097 23.8118L27.5827 24.1409C25.4187 28.3542 21.5848 30.9397 16.116 31.0537C13.5595 31.1062 11.1235 30.4504 9.53229 29.7371C6.09802 28.1941 3.20966 25.3328 1.63214 22.2754C-0.630737 17.8928 -1.03876 11.7964 3.66632 7.24292C3.73883 7.24292 3.09564 8.23022 3.16815 8.23022L3.03864 8.65161C-0.351868 19.2666 10.0939 28.3633 20.2483 27.323C22.6887 27.073 25.8007 25.7363 27.7097 23.8118Z" fill="#21609B" fill-opacity="1.000000" fill-rule="evenodd"/>
	<path id="Vector" d="M21.5649 19.4224C24.1196 19.4399 26.788 18.2458 28.368 16.5696C26.9857 20.0789 22.983 22.3345 17.6149 21.6169C13.1205 21.0156 8.83893 16.4927 8.39777 11.9609C8.0752 8.6626 9.22491 6.69409 11.1191 4.3064C10.4608 5.55518 10.2148 6.51855 10.1534 7.13281C9.43372 14.2673 15.8527 19.3853 21.5649 19.4224Z" fill="#21609B" fill-opacity="1.000000" fill-rule="evenodd"/>
	<path id="Vector" d="M28.1116 10.561C27.7144 11.4719 25.4277 13.1921 24.418 13.4072C20.4196 14.2588 17.8587 12.3628 16.5176 10.2053C16.3181 9.88281 15.9493 9.00293 15.8834 8.77905C15.3632 7.01025 15.6024 4.33496 17.1542 2.9502C16.6867 4.26685 16.6185 5.79639 16.8646 6.79053C17.0135 7.39185 17.4678 8.44116 17.9222 9.10156C18.7495 10.3042 19.2739 10.5962 20.3362 11.2349C20.8146 11.5222 21.3279 11.7529 21.5498 11.8164C22.557 12.1125 24.6835 12.8938 28.1116 10.561Z" fill="#21609B" fill-opacity="1.000000" fill-rule="evenodd"/>
</svg>
