<svg width="65.000000" height="65.000000" viewBox="0 0 65 65" fill="none" xmlns="http://www.w3.org/2000/svg" xmlns:xlink="http://www.w3.org/1999/xlink">
	<desc>
			Created with Pixso.
	</desc>
	<defs/>
	<path id="Vector" d="M0 0L65 0L65 65L0 65L0 0Z" fill="#F7DF1E" fill-opacity="1.000000" fill-rule="nonzero"/>
	<path id="Vector" d="M17.0909 54.3188L22.0651 51.3083C23.0247 53.01 23.8977 54.4495 25.9916 54.4495C27.9988 54.4495 29.2642 53.6643 29.2642 50.6104L29.2642 29.8413L35.3726 29.8413L35.3726 50.6968C35.3726 57.0234 31.6641 59.9031 26.2535 59.9031C21.3671 59.9031 18.5306 57.3723 17.0908 54.3184L17.0909 54.3188Z" fill="#000000" fill-opacity="1.000000" fill-rule="nonzero"/>
	<path id="Vector" d="M38.6904 53.6641L43.6641 50.7844C44.9733 52.9226 46.675 54.4932 49.6854 54.4932C52.2164 54.4932 53.8304 53.2278 53.8304 51.4824C53.8304 49.3882 52.1725 48.6462 49.3799 47.425L47.8533 46.77C43.4462 44.8943 40.5227 42.5381 40.5227 37.564C40.5227 32.9827 44.0132 29.4919 49.4674 29.4919C53.3507 29.4919 56.1431 30.8447 58.15 34.3789L53.394 37.4329C52.3468 35.5569 51.2127 34.8154 49.4675 34.8154C47.6786 34.8154 46.5441 35.9497 46.5441 37.4329C46.5441 39.2656 47.6786 40.0076 50.2962 41.1421L51.8232 41.7964C57.0155 44.0217 59.939 46.2905 59.939 51.3953C59.939 56.8931 55.6194 59.9036 49.8165 59.9036C44.1443 59.9036 40.4792 57.1985 38.6906 53.6641L38.6904 53.6641Z" fill="#000000" fill-opacity="1.000000" fill-rule="nonzero"/>
</svg>
