<svg width="13.281250" height="24.218750" viewBox="0 0 13.2812 24.2188" fill="none" xmlns="http://www.w3.org/2000/svg" xmlns:xlink="http://www.w3.org/1999/xlink">
	<desc>
			Created with Pixso.
	</desc>
	<defs/>
	<path d="M11.7188 0L1.5625 0C1.14825 0.000549316 0.75116 0.165344 0.458252 0.458252C0.165344 0.75116 0.000549316 1.14825 0 1.5625L0 22.6562C0.000549316 23.0705 0.165344 23.4676 0.458252 23.7605C0.75116 24.0534 1.14825 24.2182 1.5625 24.2188L11.7188 24.2188C12.133 24.2182 12.5301 24.0534 12.823 23.7605C13.1159 23.4676 13.2807 23.0705 13.2812 22.6562L13.2812 1.5625C13.2807 1.14825 13.1159 0.75116 12.823 0.458252C12.5301 0.165344 12.133 0.000549316 11.7188 0ZM8.46875 0.78125L8.24902 1.5625L4.99268 1.5625L4.79736 0.78125L8.46875 0.78125ZM12.5 22.6562C12.4998 22.8633 12.4174 23.062 12.2709 23.2084C12.1245 23.3549 11.9258 23.4373 11.7188 23.4375L1.5625 23.4375C1.35541 23.4373 1.1568 23.3549 1.01038 23.2084C0.863892 23.062 0.781494 22.8633 0.78125 22.6562L0.78125 1.5625C0.781494 1.35541 0.863892 1.1568 1.01038 1.01038C1.1568 0.863892 1.35541 0.781494 1.5625 0.78125L3.9917 0.78125L4.30859 2.04785C4.32971 2.13239 4.37848 2.2074 4.44714 2.26099C4.51581 2.31464 4.6004 2.34375 4.6875 2.34375L8.54492 2.34375C8.63007 2.34375 8.71283 2.31592 8.7807 2.26453C8.84857 2.2132 8.89783 2.14099 8.9209 2.05908L9.28027 0.78125L11.7188 0.78125C11.9258 0.781494 12.1245 0.863892 12.2709 1.01038C12.4174 1.1568 12.4998 1.35541 12.5 1.5625L12.5 22.6562Z" fill="#000000" fill-opacity="1.000000" fill-rule="nonzero"/>
	<path d="M4.6875 21.875L1.95312 21.875C1.84955 21.875 1.75018 21.9161 1.67694 21.9894C1.60364 22.0627 1.5625 22.162 1.5625 22.2656C1.5625 22.3692 1.60364 22.4686 1.67694 22.5418C1.75018 22.6151 1.84955 22.6562 1.95312 22.6562L4.6875 22.6562C4.79108 22.6562 4.89044 22.6151 4.96368 22.5418C5.03699 22.4686 5.07812 22.3692 5.07812 22.2656C5.07812 22.162 5.03699 22.0627 4.96368 21.9894C4.89044 21.9161 4.79108 21.875 4.6875 21.875Z" fill="#000000" fill-opacity="1.000000" fill-rule="nonzero"/>
	<path d="M6.25 21.875L5.85938 21.875C5.7558 21.875 5.65643 21.9161 5.58319 21.9894C5.50989 22.0627 5.46875 22.162 5.46875 22.2656C5.46875 22.3692 5.50989 22.4686 5.58319 22.5418C5.65643 22.6151 5.7558 22.6562 5.85938 22.6562L6.25 22.6562C6.35358 22.6562 6.45294 22.6151 6.52618 22.5418C6.59949 22.4686 6.64062 22.3692 6.64062 22.2656C6.64062 22.162 6.59949 22.0627 6.52618 21.9894C6.45294 21.9161 6.35358 21.875 6.25 21.875Z" fill="#000000" fill-opacity="1.000000" fill-rule="nonzero"/>
	<path d="M8.01349 9.82129C7.96948 9.79492 7.92072 9.7774 7.87 9.7699C7.81927 9.76233 7.76752 9.76483 7.71777 9.77728C7.66803 9.78973 7.62115 9.81183 7.57996 9.84241C7.53876 9.87292 7.50397 9.91132 7.47754 9.95526L5.13379 13.8615C5.08051 13.9504 5.06464 14.0567 5.08978 14.1572C5.11493 14.2578 5.17896 14.3442 5.26776 14.3975C5.35663 14.4507 5.46301 14.4666 5.56348 14.4415C5.664 14.4163 5.75043 14.3523 5.80371 14.2635L8.14746 10.3572C8.17389 10.3132 8.19135 10.2645 8.19891 10.2137C8.20642 10.163 8.20392 10.1113 8.19147 10.0615C8.17902 10.0117 8.15692 9.9649 8.1264 9.92371C8.09583 9.88251 8.0575 9.84766 8.01349 9.82129Z" fill="#000000" fill-opacity="1.000000" fill-rule="nonzero"/>
	<path d="M9.28937 9.91205C9.25732 9.87201 9.21765 9.83868 9.17273 9.8139C9.12775 9.78918 9.07837 9.77356 9.0274 9.76788C8.92438 9.75647 8.82111 9.78644 8.74017 9.8512C8.6593 9.91595 8.60742 10.0101 8.59601 10.1132C8.58459 10.2161 8.61456 10.3195 8.67932 10.4003L10.0465 12.1093L8.67932 13.8183C8.61456 13.8992 8.58459 14.0025 8.59601 14.1055C8.60742 14.2085 8.6593 14.3027 8.74017 14.3675C8.82111 14.4323 8.92438 14.4622 9.0274 14.4507C9.13037 14.4393 9.22461 14.3875 9.28937 14.3066L10.8519 12.3535C10.9073 12.2842 10.9376 12.1981 10.9376 12.1093C10.9376 12.0206 10.9073 11.9344 10.8519 11.8652L9.28937 9.91205Z" fill="#000000" fill-opacity="1.000000" fill-rule="nonzero"/>
	<path d="M3.99182 14.3066C4.05658 14.3875 4.15082 14.4393 4.25378 14.4507C4.35681 14.4622 4.46008 14.4323 4.54102 14.3675C4.62189 14.3027 4.67377 14.2085 4.68518 14.1055C4.69659 14.0025 4.66663 13.8992 4.60187 13.8183L3.23468 12.1093L4.60187 10.4003C4.63391 10.3603 4.65778 10.3143 4.67212 10.265C4.6864 10.2158 4.6908 10.1641 4.68518 10.1132C4.6795 10.0621 4.66388 10.0128 4.63916 9.96783C4.61438 9.92285 4.58105 9.88324 4.54102 9.8512C4.50092 9.81909 4.45496 9.79523 4.4057 9.78094C4.35638 9.76666 4.30481 9.76221 4.25378 9.76788C4.20282 9.77356 4.15344 9.78918 4.10846 9.8139C4.06354 9.83868 4.02386 9.87201 3.99182 9.91205L2.42932 11.8652C2.37384 11.9344 2.34363 12.0206 2.34363 12.1093C2.34363 12.1981 2.37384 12.2842 2.42932 12.3535L3.99182 14.3066Z" fill="#000000" fill-opacity="1.000000" fill-rule="nonzero"/>
</svg>
