<svg width="159.816162" height="44.911621" viewBox="0 0 159.816 44.9116" fill="none" xmlns="http://www.w3.org/2000/svg" xmlns:xlink="http://www.w3.org/1999/xlink">
	<desc>
			Created with Pixso.
	</desc>
	<defs/>
	<path id="Vector" d="M148.973 18.5732C148.829 18.6018 148.685 18.9148 148.685 19.0852C148.656 20.2229 148.627 23.238 148.627 25.2859C148.627 25.3428 148.713 25.4565 148.8 25.4565C149.232 25.4849 150.271 25.5134 151.164 25.5134C152.405 25.5134 153.125 25.3428 153.529 25.1721C154.567 24.6602 155.058 23.5508 155.058 22.3276C155.058 19.5688 153.097 18.5164 150.184 18.5164C149.982 18.488 149.406 18.488 148.973 18.5732ZM156.413 31.2874C156.413 28.4714 154.308 26.907 150.501 26.907C150.328 26.907 149.117 26.8787 148.829 26.9355C148.742 26.9641 148.627 27.021 148.627 27.1064C148.627 29.1257 148.598 32.3398 148.685 33.5911C148.742 34.1316 149.146 34.8997 149.636 35.1272C150.155 35.4116 151.338 35.4683 152.145 35.4683C154.423 35.4683 156.413 34.217 156.413 31.2874ZM143.09 17.009C143.378 17.009 144.243 17.0942 146.464 17.0942C148.569 17.0942 150.242 17.0376 152.289 17.0376C154.798 17.0376 158.259 17.9192 158.259 21.6167C158.259 23.437 156.961 24.8877 155.259 25.5989C155.173 25.6272 155.173 25.6841 155.259 25.7124C157.682 26.3098 159.816 27.7891 159.816 30.5762C159.816 33.3069 158.086 35.0417 155.577 36.1228C154.048 36.7769 152.145 37.0044 150.213 37.0044C148.742 37.0044 144.792 36.8337 142.6 36.8906C142.369 36.8054 142.802 35.7812 143.003 35.6106C143.523 35.5823 143.926 35.5537 144.474 35.3833C145.253 35.1841 145.339 34.9565 145.455 33.7905C145.512 32.7949 145.512 29.2678 145.512 26.7649C145.512 23.3232 145.541 20.991 145.512 19.8533C145.484 18.9717 145.166 18.6873 144.532 18.5164C144.042 18.4312 143.234 18.3174 142.571 18.2322C142.427 18.0898 142.917 17.1226 143.09 17.009ZM126.45 34.7007C127.143 35.2407 128.498 35.4683 129.709 35.4683C131.266 35.4683 132.824 35.1841 134.323 33.8472C135.852 32.4819 136.919 30.3772 136.919 27.021C136.919 23.8066 135.679 21.1899 133.141 19.6543C131.699 18.7722 129.853 18.4026 127.719 18.4026C127.085 18.4026 126.479 18.4312 126.104 18.6018C126.018 18.6587 125.816 18.9148 125.816 19.0569C125.758 19.6257 125.758 24.0059 125.758 26.5659C125.758 29.2112 125.758 32.9084 125.816 33.3352C125.816 33.762 126.018 34.416 126.45 34.7007ZM119.904 17.009C120.452 17.009 122.557 17.0942 123.567 17.0942C125.383 17.0942 126.681 17.009 130.113 17.009C132.997 17.009 135.419 17.7771 137.149 19.2273C139.254 21.0195 140.35 23.4941 140.35 26.509C140.35 30.8037 138.36 33.2786 136.371 34.7007C134.381 36.1511 131.785 37.0044 128.094 37.0044C126.133 37.0044 122.759 36.9475 119.962 36.9189L119.933 36.9189C119.789 36.6631 120.164 35.6677 120.394 35.6392C121.144 35.5537 121.346 35.5254 121.721 35.3833C122.326 35.1558 122.442 34.8428 122.529 33.7905C122.615 31.8279 122.586 29.467 122.586 26.7935C122.586 24.8877 122.615 21.1616 122.557 19.967C122.471 18.9717 122.038 18.7156 121.173 18.5449C120.74 18.4597 120.164 18.3457 119.356 18.2605C119.241 18.0613 119.76 17.1797 119.904 17.009Z" fill="#8E714E" fill-opacity="1.000000" fill-rule="evenodd"/>
	<path id="Vector" d="M85.0103 35.8098C84.2894 35.7244 83.7703 35.6106 83.1357 35.3262C83.0493 35.2693 82.905 34.9851 82.905 34.8711C82.8472 33.8755 82.8472 31.0312 82.8472 29.1257C82.8472 27.5896 82.588 26.2529 81.9244 25.3142C81.1458 24.2334 80.0212 23.6077 78.5793 23.6077C77.3104 23.6077 75.6089 24.4612 74.1959 25.6558C74.1671 25.6838 73.9363 25.8833 73.9652 25.5703C73.9652 25.2573 74.0229 24.6316 74.0518 24.2051C74.0807 23.8066 73.85 23.6077 73.85 23.6077C72.9269 24.0627 70.3316 24.6602 69.38 24.7454C68.6879 24.8877 68.515 25.5417 69.2359 25.7693L69.2648 25.7693C70.0432 25.9968 70.5623 26.2529 70.9659 26.5088C71.2544 26.7363 71.2255 27.0493 71.2255 27.3054C71.2544 29.4385 71.2544 32.7095 71.168 34.5015C71.1392 35.2126 70.9374 35.4683 70.4182 35.5823L70.4757 35.5537C70.072 35.6392 69.7548 35.7244 69.2645 35.7812C69.0916 35.9519 69.0916 36.8623 69.2645 37.0613C69.5818 37.0613 71.2544 36.9758 72.6388 36.9758C74.5421 36.9758 75.5226 37.0613 76.0128 37.0613C76.2147 36.8337 76.2724 35.9802 76.1569 35.7812C75.6089 35.7527 75.2053 35.696 74.8305 35.5823C74.3114 35.4683 74.167 35.2126 74.1382 34.6152C74.0807 33.1077 74.0807 29.9221 74.0807 27.7605C74.0807 27.1631 74.2537 26.8784 74.4266 26.708C75.0898 26.1392 76.1569 25.741 77.1085 25.741C78.0313 25.741 78.637 26.0254 79.0984 26.3953C79.7328 26.907 79.9346 27.6465 80.0212 28.187C80.1653 29.4102 80.1078 31.8279 80.1078 33.9326C80.1078 35.0703 80.0212 35.3547 79.5887 35.4968C79.3868 35.5823 78.8677 35.696 78.262 35.7527C78.0602 35.9519 78.1179 36.8337 78.262 37.0327C79.0984 37.0327 80.0789 36.9475 81.5208 36.9475C83.3086 36.9475 84.4623 37.0327 84.9237 37.0327C85.0678 36.8623 85.1255 36.0374 85.0101 35.8098L85.0103 35.8098ZM92.9985 24.9446C91.47 24.9446 90.5183 26.1108 90.5183 27.9309C90.5183 29.7798 91.3545 31.9128 93.7194 31.9128C94.123 31.9128 94.8729 31.7424 95.2188 31.3442C95.7667 30.8323 96.1418 29.8083 96.1418 28.7275C96.1418 26.3667 94.9592 24.9446 92.9985 24.9446ZM92.7964 37.5164C92.2198 37.5164 91.8159 37.687 91.5566 37.8293C90.3451 38.5972 89.7974 39.3367 89.7974 40.2185C89.7974 41.0432 90.1144 41.6973 90.8068 42.2664C91.6429 42.9773 92.7964 43.3188 94.2672 43.3188C97.2086 43.3188 98.5065 41.7544 98.5065 40.2185C98.5065 39.1375 97.9584 38.4265 96.8339 38.0283C96.0263 37.687 94.5555 37.5164 92.7964 37.5164ZM92.9985 44.9116C91.2393 44.9116 89.9703 44.5415 88.8746 43.7168C87.8075 42.9204 87.3461 41.7258 87.3461 40.9011C87.3461 40.6736 87.4039 40.0476 87.923 39.479C88.24 39.1375 88.9321 38.4834 90.576 37.3743C90.6335 37.3457 90.6624 37.3174 90.6624 37.2603C90.6624 37.2034 90.6047 37.1465 90.5472 37.1182C89.1917 36.6062 88.788 35.7812 88.6725 35.3262L88.6725 35.2693C88.6439 35.0986 88.5862 34.928 88.8458 34.7573C89.0475 34.6152 89.336 34.4446 89.653 34.2456C90.1433 33.9609 90.6624 33.6479 90.9797 33.3921C91.0375 33.3352 91.0375 33.2783 91.0375 33.2214C91.0375 33.1646 90.9797 33.1077 90.9219 33.0793C88.9035 32.425 87.8941 30.9458 87.8941 28.7275C87.8941 27.2769 88.5573 25.9685 89.7396 25.1438C90.5472 24.5178 92.5657 23.75 93.8923 23.75L93.9789 23.75C95.3342 23.7783 96.084 24.0627 97.1509 24.4326C97.7278 24.6316 98.2758 24.7168 99.0256 24.7168C100.15 24.7168 100.64 24.3757 101.044 23.9775C101.073 24.0342 101.131 24.1765 101.16 24.5464C101.188 24.9163 101.073 25.4563 100.784 25.8547C100.554 26.1675 100.035 26.3953 99.5158 26.3953L99.3715 26.3953C98.8524 26.3384 98.6216 26.2812 98.6216 26.2812L98.5065 26.3384C98.4776 26.3953 98.5065 26.4519 98.5353 26.5374L98.5642 26.5942C98.6216 26.8503 98.7371 27.6182 98.7371 27.8174C98.7371 30.1497 97.7855 31.1733 96.7761 31.9414C95.7957 32.6526 94.671 33.1077 93.4021 33.2214C93.3732 33.2214 93.258 33.2214 92.9985 33.25C92.8541 33.25 92.6523 33.2783 92.6234 33.2783L92.5945 33.2783C92.3638 33.3352 91.7872 33.6196 91.7872 34.103C91.7872 34.5298 92.0468 35.0417 93.2866 35.1272C93.5462 35.1555 93.8057 35.1555 94.0942 35.1841C95.7379 35.2976 97.7855 35.4402 98.7371 35.7527C100.064 36.2363 100.9 37.4023 100.9 38.7964C100.9 40.9011 99.3715 42.8638 96.8339 44.0867C95.5938 44.627 94.3538 44.9116 92.9985 44.9116ZM109.436 25.0867C108.83 25.0867 108.282 25.2288 107.879 25.5134C106.754 26.196 106.177 27.5613 106.177 29.5522C106.177 33.2783 108.081 35.8953 110.791 35.8953C111.599 35.8953 112.233 35.6677 112.781 35.2126C113.617 34.5298 114.05 33.1646 114.05 31.2588C114.05 27.5613 112.176 25.0867 109.436 25.0867ZM109.955 37.2603C105.053 37.2603 103.294 33.7051 103.294 30.3772C103.294 28.0449 104.245 26.2529 106.148 24.9729C107.504 24.1482 109.119 23.6931 110.561 23.6931C114.31 23.6931 116.934 26.3384 116.934 30.1497C116.934 32.738 115.896 34.7856 113.906 36.0374C112.954 36.6628 111.31 37.2603 109.955 37.2603L109.955 37.2603ZM58.5658 25.0867C57.9601 25.0867 57.4124 25.2288 57.0084 25.5134C55.8839 26.196 55.307 27.5613 55.307 29.5522C55.307 33.2783 57.2103 35.8953 59.9211 35.8953C60.7286 35.8953 61.363 35.6677 61.9109 35.2126C62.7471 34.5298 63.1799 33.1646 63.1799 31.2588C63.1799 27.5613 61.3341 25.0867 58.5658 25.0867ZM59.085 37.2603C54.1824 37.2603 52.4232 33.7051 52.4232 30.3772C52.4232 28.0449 53.3749 26.2529 55.2781 24.9729C56.6337 24.1482 58.2485 23.6931 59.6904 23.6931C63.4395 23.6931 66.0637 26.3384 66.0637 30.1497C66.0637 32.738 65.0255 34.7856 63.0356 36.0374C62.1128 36.6628 60.4691 37.2603 59.085 37.2603ZM26.123 36.9758C26.0653 36.8906 26.0076 36.6348 26.0364 36.3218C26.0364 36.0942 26.0942 35.9519 26.123 35.8953C26.7285 35.8098 27.0458 35.7244 27.3917 35.6392C27.9686 35.4968 28.1993 35.1841 28.2281 34.4729C28.3148 32.7664 28.3148 29.5237 28.2859 27.2769L28.2859 27.22C28.2859 26.9639 28.2859 26.6509 27.9686 26.4236C27.5072 26.1392 26.9592 25.8833 26.2383 25.6838C25.9787 25.5989 25.8057 25.4563 25.8346 25.2859C25.8346 25.1152 26.0076 24.9163 26.3826 24.8591C27.3342 24.7737 29.8141 24.1765 30.7946 23.75C30.8524 23.8066 30.939 23.9775 30.939 24.2051L30.9101 24.5178C30.8812 24.8308 30.8524 25.2007 30.8524 25.5703C30.8524 25.6838 30.9678 25.7693 31.0831 25.7693C31.1408 25.7693 31.1985 25.741 31.2563 25.7124C33.1018 24.2903 34.7744 23.7783 35.6394 23.7783C37.0527 23.7783 38.1484 24.4326 38.9849 25.7979C39.0423 25.8833 39.1 25.9114 39.1866 25.9114C39.2444 25.9114 39.3307 25.8833 39.3596 25.8264C41.061 24.5464 42.7625 23.7783 43.8871 23.7783C46.569 23.7783 48.1553 25.741 48.1553 29.0686C48.1553 30.0073 48.1553 31.2305 48.1264 32.3398C48.1264 33.3352 48.0975 34.2456 48.0975 34.8997C48.0975 35.0417 48.2994 35.4968 48.6167 35.5823C49.0203 35.7812 49.5683 35.8667 50.2892 35.9802L50.3181 35.9802C50.3759 36.1794 50.2604 36.9189 50.1452 37.0613C49.9719 37.0613 49.7124 37.0613 49.4243 37.0327C48.8762 37.0044 48.0975 36.9758 47.2325 36.9758C45.4445 36.9758 44.5217 37.0044 43.6276 37.0613C43.5701 36.8337 43.5412 36.1511 43.6276 35.9802C44.1467 35.8953 44.4062 35.8098 44.7235 35.7244C45.3004 35.5537 45.4445 35.2976 45.4733 34.5581C45.4733 34.0181 45.5886 29.4102 45.4156 28.3008C45.2427 27.1631 44.3774 25.8264 42.4741 25.8264C41.7531 25.8264 40.6285 26.1108 39.5326 26.9355C39.4751 26.9924 39.4174 27.1345 39.4174 27.22L39.4174 27.2485C39.5326 27.8457 39.5326 28.5286 39.5326 29.5808L39.5326 31.4294C39.5326 32.7095 39.5037 33.9041 39.5326 34.8142C39.5326 35.4402 39.9076 35.5823 40.2249 35.696C40.3978 35.7244 40.5131 35.7527 40.6574 35.7812C40.917 35.8381 41.1765 35.8953 41.5802 35.9802C41.6379 36.0942 41.6379 36.4639 41.5513 36.7769C41.5225 36.9475 41.4647 37.0327 41.4361 37.0613C40.4556 37.0327 39.4462 37.0044 37.9755 37.0044C37.543 37.0044 36.7932 37.0327 36.1585 37.0327C35.6394 37.0327 35.1492 37.0613 34.861 37.0613C34.8322 37.0044 34.7744 36.8052 34.7744 36.4924C34.7744 36.2363 34.8322 36.0374 34.8899 35.9802C35.0339 35.9519 35.1492 35.9236 35.2935 35.9236C35.6394 35.8667 35.9279 35.8098 36.2162 35.7527C36.7065 35.6106 36.8795 35.3547 36.9083 34.729C36.9949 33.3069 37.0813 29.2395 36.8795 28.2156C36.5336 26.5659 35.582 25.741 34.0535 25.741C33.1595 25.741 32.0347 26.1675 31.1119 26.8503C30.9678 26.9639 30.8524 27.2485 30.8524 27.5044L30.8524 29.1826C30.8524 31.2305 30.8524 33.7905 30.8812 34.8997C30.9101 35.2407 31.0253 35.6392 31.6888 35.7812C31.8329 35.8098 32.0635 35.8667 32.352 35.8953L32.8711 35.9802C32.9288 36.1511 32.9 36.8337 32.7845 37.0613C32.4961 37.0613 32.1501 37.0327 31.7463 37.0327C31.1408 37.0044 30.3621 36.9758 29.4971 36.9758C28.4877 36.9758 27.7668 37.0044 27.1899 37.0327C26.7863 36.9758 26.4689 36.9758 26.123 36.9758Z" fill="#442D22" fill-opacity="1.000000" fill-rule="evenodd"/>
	<path id="Vector" d="M10.9541 43.8025L9.77173 43.4041C9.77173 43.4041 9.91608 37.4595 7.7533 37.033C6.3114 35.3833 7.98395 -32.9368 13.1746 36.8054C13.1746 36.8054 11.3868 37.687 11.0696 39.1946C10.7234 40.6736 10.9541 43.8025 10.9541 43.8025Z" fill="#FFFFFF" fill-opacity="1.000000" fill-rule="evenodd"/>
	<path id="Vector" d="M10.9541 43.8025L9.77173 43.4041C9.77173 43.4041 9.91608 37.4595 7.7533 37.033C6.3114 35.3833 7.98395 -32.9368 13.1746 36.8054C13.1746 36.8054 11.3868 37.687 11.0696 39.1946C10.7234 40.6736 10.9541 43.8025 10.9541 43.8025Z" fill="#A6A385" fill-opacity="1.000000" fill-rule="evenodd"/>
	<path id="Vector" d="M11.5887 38.0566C11.5887 38.0566 21.9415 31.344 19.519 17.3784C17.1833 7.22437 11.675 3.89673 11.0695 2.6167C10.4063 1.70654 9.77173 0.11377 9.77173 0.11377L10.2045 28.3574C10.2045 28.386 9.31036 37.0042 11.5887 38.0566Z" fill="#FFFFFF" fill-opacity="1.000000" fill-rule="evenodd"/>
	<path id="Vector" d="M11.5887 38.0566C11.5887 38.0566 21.9415 31.344 19.519 17.3784C17.1833 7.22437 11.675 3.89673 11.0695 2.6167C10.4063 1.70654 9.77173 0.11377 9.77173 0.11377L10.2045 28.3574C10.2045 28.386 9.31036 37.0042 11.5887 38.0566Z" fill="#499D4A" fill-opacity="1.000000" fill-rule="evenodd"/>
	<path id="Vector" d="M9.16626 38.4265C9.16626 38.4265 -0.552185 31.8845 0.0247192 20.3652C0.572449 8.8457 7.43597 3.18579 8.76239 2.16162C9.62769 1.25146 9.65656 0.910156 9.71429 0C10.3198 1.28003 10.2045 19.1421 10.2909 21.2468C10.5504 29.353 9.82947 36.8906 9.16626 38.4265Z" fill="#FFFFFF" fill-opacity="1.000000" fill-rule="evenodd"/>
	<path id="Vector" d="M9.16626 38.4265C9.16626 38.4265 -0.552185 31.8845 0.0247192 20.3652C0.572449 8.8457 7.43597 3.18579 8.76239 2.16162C9.62769 1.25146 9.65656 0.910156 9.71429 0C10.3198 1.28003 10.2045 19.1421 10.2909 21.2468C10.5504 29.353 9.82947 36.8906 9.16626 38.4265Z" fill="#58AA50" fill-opacity="1.000000" fill-rule="evenodd"/>
</svg>
