<svg width="103.859131" height="64.812500" viewBox="0 0 103.859 64.8125" fill="none" xmlns="http://www.w3.org/2000/svg" xmlns:xlink="http://www.w3.org/1999/xlink">
	<desc>
			Created with Pixso.
	</desc>
	<defs>
		<linearGradient id="paint_linear_15_1933_0" x1="42.375080" y1="19.310825" x2="33.438850" y2="37.889057" gradientUnits="userSpaceOnUse">
			<stop stop-color="#41873F"/>
			<stop offset="0.328800" stop-color="#418B3D"/>
			<stop offset="0.635200" stop-color="#419637"/>
			<stop offset="0.931900" stop-color="#3FA92D"/>
			<stop offset="1.000000" stop-color="#3FAE2A"/>
		</linearGradient>
		<linearGradient id="paint_linear_15_1937_0" x1="36.847832" y1="29.033001" x2="61.922218" y2="10.152714" gradientUnits="userSpaceOnUse">
			<stop offset="0.137600" stop-color="#41873F"/>
			<stop offset="0.403200" stop-color="#54A044"/>
			<stop offset="0.713600" stop-color="#66B848"/>
			<stop offset="0.908100" stop-color="#6CC04A"/>
		</linearGradient>
		<linearGradient id="paint_linear_15_1942_0" x1="28.990770" y1="12.857296" x2="47.286930" y2="12.857296" gradientUnits="userSpaceOnUse">
			<stop offset="0.091916" stop-color="#6CC04A"/>
			<stop offset="0.286400" stop-color="#66B848"/>
			<stop offset="0.596800" stop-color="#54A044"/>
			<stop offset="0.862400" stop-color="#41873F"/>
		</linearGradient>
		<linearGradient id="paint_linear_15_1943_0" x1="26.918432" y1="27.669353" x2="49.788338" y2="27.669353" gradientUnits="userSpaceOnUse">
			<stop offset="0.091916" stop-color="#6CC04A"/>
			<stop offset="0.286400" stop-color="#66B848"/>
			<stop offset="0.596800" stop-color="#54A044"/>
			<stop offset="0.862400" stop-color="#41873F"/>
		</linearGradient>
		<linearGradient id="paint_linear_15_1944_0" x1="42.881298" y1="34.296967" x2="49.742451" y2="34.296967" gradientUnits="userSpaceOnUse">
			<stop offset="0.091916" stop-color="#6CC04A"/>
			<stop offset="0.286400" stop-color="#66B848"/>
			<stop offset="0.596800" stop-color="#54A044"/>
			<stop offset="0.862400" stop-color="#41873F"/>
		</linearGradient>
		<linearGradient id="paint_linear_15_1945_0" x1="26.918451" y1="37.330223" x2="49.788361" y2="37.330223" gradientUnits="userSpaceOnUse">
			<stop offset="0.091916" stop-color="#6CC04A"/>
			<stop offset="0.286400" stop-color="#66B848"/>
			<stop offset="0.596800" stop-color="#54A044"/>
			<stop offset="0.862400" stop-color="#41873F"/>
		</linearGradient>
		<linearGradient id="paint_linear_15_1946_0" x1="53.120228" y1="18.759886" x2="39.015533" y2="48.083260" gradientUnits="userSpaceOnUse">
			<stop stop-color="#41873F"/>
			<stop offset="0.328800" stop-color="#418B3D"/>
			<stop offset="0.635200" stop-color="#419637"/>
			<stop offset="0.931900" stop-color="#3FA92D"/>
			<stop offset="1.000000" stop-color="#3FAE2A"/>
		</linearGradient>
	</defs>
	<path id="Vector" d="M51.3661 64.8125C51.014 64.8125 50.6853 64.7168 50.3802 64.5493L47.2578 62.6592C46.7883 62.396 47.023 62.3003 47.1639 62.2524C47.7978 62.0371 47.9151 61.9893 48.5725 61.6064C48.6429 61.5588 48.7368 61.5828 48.8072 61.6306L51.2018 63.0898C51.2957 63.1377 51.4131 63.1377 51.4835 63.0898L60.8506 57.5632C60.9445 57.5154 60.9914 57.4197 60.9914 57.3L60.9914 46.2708C60.9914 46.1511 60.9445 46.0554 60.8506 46.0076L51.4835 40.5049C51.3896 40.457 51.2722 40.457 51.2018 40.5049L41.8348 46.0076C41.7409 46.0554 41.6939 46.175 41.6939 46.2708L41.6939 57.3C41.6939 57.3958 41.7409 57.5154 41.8348 57.5632L44.3937 59.0706C45.7788 59.7883 46.6474 58.9509 46.6474 58.1135L46.6474 47.2278C46.6474 47.0842 46.7648 46.9407 46.9291 46.9407L48.1264 46.9407C48.2673 46.9407 48.4081 47.0603 48.4081 47.2278L48.4081 58.1135C48.4081 60.0037 47.3987 61.1042 45.6379 61.1042C45.098 61.1042 44.6754 61.1042 43.4781 60.5061L41.0131 59.0706C40.4027 58.7117 40.0271 58.0417 40.0271 57.324L40.0271 46.2947C40.0271 45.5769 40.4027 44.907 41.0131 44.5481L50.3802 39.0215C50.967 38.6865 51.7653 38.6865 52.3521 39.0215L61.7192 44.5481C62.3296 44.907 62.7052 45.5769 62.7052 46.2947L62.7052 57.324C62.7052 58.0417 62.3296 58.7117 61.7192 59.0706L52.3521 64.5972C52.047 64.7407 51.6948 64.8125 51.3661 64.8125ZM54.2537 57.2283C50.1454 57.2283 49.3002 55.3142 49.3002 53.6875C49.3002 53.5439 49.4176 53.4004 49.5819 53.4004L50.8027 53.4004C50.9436 53.4004 51.061 53.4961 51.061 53.6396C51.2488 54.9077 51.7887 55.5295 54.2772 55.5295C56.2492 55.5295 57.0944 55.0752 57.0944 53.9985C57.0944 53.3765 56.8596 52.9219 53.7842 52.6108C51.2253 52.3477 49.6289 51.7734 49.6289 49.6919C49.6289 47.7542 51.2253 46.6057 53.9016 46.6057C56.9066 46.6057 58.3856 47.6584 58.5734 49.9551C58.5734 50.0269 58.5499 50.0986 58.503 50.1704C58.456 50.2183 58.3856 50.2661 58.3151 50.2661L57.0944 50.2661C56.977 50.2661 56.8596 50.1704 56.8361 50.0508C56.5544 48.7349 55.8267 48.3044 53.9016 48.3044C51.7418 48.3044 51.4835 49.0698 51.4835 49.644C51.4835 50.3379 51.7887 50.5532 54.6998 50.936C57.5874 51.3188 58.949 51.8691 58.949 53.9268C58.9255 56.032 57.2352 57.2283 54.2537 57.2283Z" fill="#539E43" fill-opacity="1.000000" fill-rule="nonzero"/>
	<path id="Vector" d="M22.3025 21.676C22.3025 21.2454 22.0677 20.8386 21.6921 20.6233L11.7382 14.7856C11.5738 14.6899 11.386 14.6421 11.1982 14.6182L11.1043 14.6182C10.9165 14.6182 10.7287 14.6899 10.5643 14.7856L0.610382 20.6233C0.234772 20.8386 0 21.2454 0 21.676L0.023468 37.3708C0.023468 37.5859 0.140869 37.8013 0.328674 37.897C0.516479 38.0166 0.751251 38.0166 0.915588 37.897L6.8316 34.4519C7.20721 34.2366 7.44199 33.8298 7.44199 33.3992L7.44199 26.0542C7.44199 25.6235 7.67676 25.2168 8.05237 25.0015L10.5643 23.5183C10.7521 23.3987 10.9634 23.3508 11.1747 23.3508C11.386 23.3508 11.5973 23.3987 11.7616 23.5183L14.2736 25.0015C14.6492 25.2168 14.884 25.6235 14.884 26.0542L14.884 33.3992C14.884 33.8298 15.1187 34.2366 15.4944 34.4519L21.4104 37.897C21.5982 38.0166 21.8329 38.0166 22.0208 37.897C22.2086 37.8013 22.326 37.5859 22.326 37.3708L22.3025 21.676Z" fill="#333333" fill-opacity="1.000000" fill-rule="nonzero"/>
	<path id="Vector" d="M70.1472 0.0717773C69.9594 -0.0239258 69.7246 -0.0239258 69.5602 0.0717773C69.3724 0.191406 69.2551 0.382812 69.2551 0.598145L69.2551 16.1494C69.2551 16.293 69.1846 16.4363 69.0438 16.532C68.9029 16.6038 68.7621 16.6038 68.6212 16.532L66.1327 15.0728C65.7571 14.8574 65.311 14.8574 64.9354 15.0728L54.9815 20.9343C54.6059 21.1497 54.3711 21.5564 54.3711 21.9871L54.3711 33.6863C54.3711 34.1169 54.6059 34.5237 54.9815 34.739L64.9354 40.6006C65.311 40.8159 65.7571 40.8159 66.1327 40.6006L76.0867 34.739C76.4623 34.5237 76.6971 34.1169 76.6971 33.6863L76.6971 4.52173C76.6971 4.06714 76.4623 3.6604 76.0867 3.44507L70.1472 0.0717773ZM69.2316 29.8342C69.2316 29.9539 69.1846 30.0496 69.0907 30.0974L65.6867 32.1072C65.5927 32.155 65.4754 32.155 65.3815 32.1072L61.9774 30.0974C61.8835 30.0496 61.8365 29.9299 61.8365 29.8342L61.8365 25.8149C61.8365 25.6953 61.8835 25.5996 61.9774 25.5518L65.3815 23.542C65.4754 23.4941 65.5927 23.4941 65.6867 23.542L69.0907 25.5518C69.1846 25.5996 69.2316 25.7192 69.2316 25.8149L69.2316 29.8342Z" fill="#333333" fill-opacity="1.000000" fill-rule="nonzero"/>
	<path id="Vector" d="M103.272 25.7192C103.648 25.5039 103.859 25.0972 103.859 24.6665L103.859 21.8193C103.859 21.3887 103.624 20.9822 103.272 20.7668L93.3887 14.929C93.0131 14.7139 92.567 14.7139 92.1914 14.929L82.2375 20.7908C81.8618 21.0061 81.6271 21.4126 81.6271 21.8433L81.6271 33.5427C81.6271 33.9734 81.8618 34.3801 82.2375 34.5952L92.121 40.3374C92.4966 40.5527 92.9427 40.5527 93.2948 40.3374L99.2812 36.9399C99.4691 36.8442 99.5864 36.6289 99.5864 36.4136C99.5864 36.1982 99.4691 35.9829 99.2812 35.8872L89.2803 30.0256C89.0925 29.906 88.9752 29.7146 88.9752 29.4993L88.9752 25.8389C88.9752 25.6235 89.0925 25.4082 89.2803 25.3125L92.4027 23.4941C92.5905 23.3745 92.8253 23.3745 93.0131 23.4941L96.1354 25.3125C96.3232 25.4321 96.4406 25.6235 96.4406 25.8389L96.4406 28.7097C96.4406 28.925 96.558 29.1404 96.7458 29.2361C96.9336 29.3557 97.1684 29.3557 97.3562 29.2361L103.272 25.7192Z" fill="#333333" fill-opacity="1.000000" fill-rule="nonzero"/>
	<path id="Vector" d="M92.6375 25.1689C92.7079 25.1211 92.8018 25.1211 92.8723 25.1689L94.7738 26.2935C94.8443 26.3413 94.8912 26.4131 94.8912 26.5088L94.8912 28.7576C94.8912 28.8533 94.8443 28.925 94.7738 28.9729L92.8723 30.0974C92.8018 30.1453 92.7079 30.1453 92.6375 30.0974L90.7359 28.9729C90.6655 28.925 90.6185 28.8533 90.6185 28.7576L90.6185 26.5088C90.6185 26.4131 90.6655 26.3413 90.7359 26.2935L92.6375 25.1689Z" fill="#539E43" fill-opacity="1.000000" fill-rule="nonzero"/>
	<mask id="mask15_1931" mask-type="alpha" maskUnits="userSpaceOnUse" x="27.279419" y="14.815430" width="22.138153" height="25.707275">
		<path id="Vector" d="M38.9471 14.9768C38.5715 14.7617 38.1255 14.7617 37.7498 14.9768L27.8663 20.7908C27.4907 21.0061 27.2794 21.4126 27.2794 21.8433L27.2794 33.4949C27.2794 33.9255 27.5142 34.3323 27.8663 34.5474L37.7498 40.3613C38.1255 40.5767 38.5715 40.5767 38.9471 40.3613L48.8307 34.5474C49.2063 34.3323 49.4176 33.9255 49.4176 33.4949L49.4176 21.8433C49.4176 21.4126 49.1828 21.0061 48.8307 20.7908L38.9471 14.9768Z" fill="#FFFFFF" fill-opacity="1.000000" fill-rule="nonzero"/>
	</mask>
	<g mask="url(#mask15_1931)">
		<path id="Vector" d="M38.9471 14.9768C38.5715 14.7617 38.1255 14.7617 37.7498 14.9768L27.8663 20.7908C27.4907 21.0061 27.2794 21.4126 27.2794 21.8433L27.2794 33.4949C27.2794 33.9255 27.5142 34.3323 27.8663 34.5474L37.7498 40.3613C38.1255 40.5767 38.5715 40.5767 38.9471 40.3613L48.8307 34.5474C49.2063 34.3323 49.4176 33.9255 49.4176 33.4949L49.4176 21.8433C49.4176 21.4126 49.1828 21.0061 48.8307 20.7908L38.9471 14.9768Z" fill="url(#paint_linear_15_1933_0)" fill-opacity="1.000000" fill-rule="nonzero"/>
	</g>
	<g mask="url(#mask15_1931)">
		<path id="Vector" d="M48.8542 20.79L38.9237 14.9763C38.8298 14.9285 38.7124 14.8806 38.6185 14.8567L27.4907 34.2837C27.5846 34.4033 27.702 34.499 27.8194 34.5708L37.7499 40.3845C38.0316 40.552 38.3603 40.5999 38.6654 40.5042L49.1124 21.0293C49.042 20.9336 48.9481 20.8618 48.8542 20.79Z" fill="url(#paint_linear_15_1937_0)" fill-opacity="1.000000" fill-rule="nonzero"/>
	</g>
	<g mask="url(#mask15_1931)">
		<path id="Vector" d="M37.4213 12.8477L37.2804 12.9194L37.4682 12.9194L37.4213 12.8477Z" fill="url(#paint_linear_15_1942_0)" fill-opacity="1.000000" fill-rule="evenodd"/>
		<path id="Vector" d="M48.8776 34.5474C49.1593 34.3799 49.3706 34.0928 49.4645 33.7817L38.5715 14.8333C38.2898 14.7854 37.9846 14.8093 37.7264 14.9768L27.8663 20.7666L38.5011 40.5286C38.642 40.5046 38.8063 40.4568 38.9471 40.385L48.8776 34.5474Z" fill="url(#paint_linear_15_1943_0)" fill-opacity="1.000000" fill-rule="evenodd"/>
		<path id="Vector" d="M49.7932 34.356L49.7228 34.2363L49.7228 34.4038L49.7932 34.356Z" fill="url(#paint_linear_15_1944_0)" fill-opacity="1.000000" fill-rule="evenodd"/>
		<path id="Vector" d="M48.8777 34.5474L38.9706 40.3611C38.8298 40.4329 38.6889 40.4807 38.5246 40.5046L38.7124 40.8635L49.6993 34.3799L49.6993 34.2363L49.4176 33.7578C49.3706 34.0928 49.1594 34.3799 48.8777 34.5474Z" fill="url(#paint_linear_15_1945_0)" fill-opacity="1.000000" fill-rule="evenodd"/>
		<path id="Vector" d="M48.8777 34.5474L38.9706 40.3611C38.8298 40.4329 38.6889 40.4807 38.5246 40.5046L38.7124 40.8635L49.6993 34.3799L49.6993 34.2363L49.4176 33.7578C49.3706 34.0928 49.1594 34.3799 48.8777 34.5474Z" fill="url(#paint_linear_15_1946_0)" fill-opacity="1.000000" fill-rule="evenodd"/>
	</g>
</svg>
