<svg width="71.558380" height="64.647705" viewBox="0 0 71.5584 64.6477" fill="none" xmlns="http://www.w3.org/2000/svg" xmlns:xlink="http://www.w3.org/1999/xlink">
	<desc>
			Created with Pixso.
	</desc>
	<defs/>
	<path id="Vector" d="M0 32.2078C0 37.6379 5.27695 42.707 13.5965 45.5645C11.9352 53.9685 13.2988 60.7422 17.8533 63.3816C22.5349 66.0945 29.5094 64.2166 36.1291 58.4023C42.5817 63.9819 49.1033 66.1777 53.6536 63.5308C58.3307 60.8103 59.7533 53.5771 58.0461 44.9106C66.7113 42.032 71.5584 37.7095 71.5584 32.2078C71.5584 26.9036 66.2717 22.3147 58.0643 19.4756C59.9023 10.4509 58.3449 3.84155 53.6018 1.09326C49.029 -1.5564 42.4317 0.75293 35.8841 6.47876C29.0725 0.401367 22.5403 -1.4541 17.8018 1.30225C13.2334 3.95947 11.9298 10.8562 13.5965 19.416C5.55787 22.2322 0 26.9248 0 32.2078Z" fill="#FFFFFF" fill-opacity="1.000000" fill-rule="nonzero"/>
	<path id="Vector" d="M56.326 22.2949C55.6668 22.0669 54.9837 21.8511 54.2803 21.6472C54.3959 21.1731 54.502 20.7051 54.5964 20.2451C56.145 12.6917 55.1324 6.60669 51.675 4.60303C48.3597 2.68213 42.9378 4.68506 37.4619 9.47363C36.9354 9.93408 36.4073 10.4216 35.8795 10.9324C35.5278 10.5945 35.1767 10.2678 34.8265 9.95532C29.0877 4.83521 23.3354 2.67749 19.8813 4.68677C16.5692 6.61328 15.5883 12.3337 16.9823 19.4922C17.1169 20.1836 17.2742 20.8896 17.4522 21.6077C16.638 21.8398 15.8521 22.0874 15.1001 22.3508C8.3719 24.7078 4.07498 28.4021 4.07498 32.2336C4.07498 36.1912 8.68773 40.1606 15.6957 42.5674C16.2487 42.7573 16.8225 42.937 17.4139 43.1074C17.222 43.884 17.055 44.6448 16.9148 45.387C15.5857 52.4211 16.6237 58.0066 19.927 59.9209C23.339 61.8979 29.0653 59.866 34.6412 54.9683C35.0819 54.5811 35.5242 54.1707 35.9673 53.7402C36.5416 54.2959 37.115 54.8218 37.6853 55.3152C43.0863 59.9854 48.4206 61.8711 51.7209 59.9514C55.1295 57.9685 56.2373 51.9685 54.7991 44.6685C54.6892 44.1108 54.5614 43.5415 54.4178 42.9617C54.82 42.8423 55.2148 42.719 55.5997 42.5906C62.8851 40.1653 67.6252 36.2441 67.6252 32.2336C67.6252 28.3882 63.1897 24.6692 56.326 22.2949Z" fill="#53C1DE" fill-opacity="1.000000" fill-rule="nonzero"/>
	<path id="Vector" d="M54.7459 40.0012C54.3984 40.1169 54.0419 40.2285 53.6785 40.3369C52.8743 37.7783 51.7888 35.0579 50.4604 32.2471C51.728 29.5032 52.7715 26.8174 53.5533 24.2754C54.2034 24.4644 54.8344 24.6638 55.4424 24.8743C61.3232 26.9084 64.9104 29.9163 64.9104 32.2336C64.9104 34.7024 61.0363 37.9067 54.7459 40.0012ZM52.1358 45.1982C52.7718 48.4263 52.8626 51.3447 52.4413 53.6262C52.0629 55.6763 51.3017 57.043 50.3605 57.5903C48.3578 58.7554 44.0749 57.2412 39.4559 53.2473C38.9264 52.7893 38.393 52.3005 37.858 51.783C39.6487 49.8152 41.4383 47.5273 43.185 44.9868C46.2572 44.7129 49.1597 44.2649 51.7918 43.6536C51.9215 44.179 52.0366 44.6943 52.1358 45.1982ZM25.7407 57.3892C23.784 58.0835 22.2256 58.1035 21.2835 57.5576C19.2789 56.3958 18.4456 51.9114 19.5823 45.8958C19.7125 45.2068 19.8675 44.499 20.0461 43.7756C22.6494 44.3542 25.5307 44.7705 28.6102 45.0212C30.3686 47.5076 32.21 49.7927 34.0656 51.7937C33.6602 52.187 33.2563 52.5613 32.8548 52.9141C30.3891 55.0798 27.9183 56.6165 25.7407 57.3892ZM16.5737 39.9861C13.4749 38.9219 10.9158 37.5386 9.16172 36.0293C7.58553 34.6729 6.78973 33.3264 6.78973 32.2336C6.78973 29.9084 10.2397 26.9426 15.9937 24.9268C16.6919 24.6821 17.4228 24.4517 18.1812 24.2351C18.9765 26.8345 20.0196 29.552 21.2785 32.3C20.0033 35.0889 18.9453 37.8499 18.1423 40.4797C17.6016 40.3235 17.0778 40.1592 16.5737 39.9861ZM19.6466 18.9683C18.4523 12.8352 19.2455 8.2085 21.2414 7.04761C23.3675 5.81079 28.0688 7.57422 33.0239 11.9951C33.3406 12.2778 33.6586 12.5735 33.9774 12.8794C32.131 14.8716 30.3065 17.1399 28.5637 19.6113C25.5749 19.8896 22.7139 20.3369 20.0834 20.9355C19.9181 20.2671 19.7716 19.6104 19.6466 18.9683ZM47.0593 25.77C46.4305 24.6785 45.7849 23.6128 45.1268 22.5764C47.1544 22.834 49.0971 23.1758 50.9215 23.5942C50.3738 25.3582 49.6911 27.2024 48.8875 29.093C48.3111 27.9932 47.7013 26.8843 47.0593 25.77ZM35.8804 14.8291C37.1327 16.1924 38.3867 17.7144 39.6201 19.3655C38.3772 19.3066 37.1189 19.2759 35.8501 19.2759C34.5934 19.2759 33.3443 19.3059 32.1091 19.3638C33.3438 17.7278 34.6087 16.208 35.8804 14.8291ZM24.63 25.7888C24.0019 26.8833 23.4035 27.9861 22.8361 29.0908C22.0455 27.2068 21.3691 25.3542 20.8167 23.5654C22.6298 23.1577 24.5634 22.8242 26.5781 22.5715C25.9107 23.6177 25.2598 24.6912 24.63 25.7886L24.63 25.7888ZM26.6362 42.0903C24.5546 41.8569 22.5919 41.5408 20.7792 41.1443C21.3405 39.3235 22.0318 37.4314 22.8391 35.5068C23.408 36.6108 24.0088 37.7141 24.6408 38.811L24.6409 38.811C25.2846 39.9285 25.9516 41.0229 26.6362 42.0903ZM35.9556 49.8306C34.6688 48.4355 33.3854 46.8926 32.1319 45.2327C33.3487 45.2805 34.5893 45.3052 35.8501 45.3052C37.1454 45.3052 38.426 45.2759 39.6863 45.2195C38.4488 46.9092 37.1993 48.4548 35.9556 49.8306ZM48.9134 35.4087C49.7628 37.354 50.4789 39.2363 51.0474 41.0261C49.2048 41.4485 47.2154 41.7888 45.1193 42.0415C45.779 40.991 46.4302 39.9072 47.0701 38.7922C47.7175 37.6641 48.3322 36.5344 48.9134 35.4087ZM44.7185 37.4294C43.7251 39.1602 42.7052 40.8123 41.6699 42.3721C39.7841 42.5073 37.8358 42.5771 35.8501 42.5771C33.8725 42.5771 31.9488 42.5156 30.0964 42.3948C29.0192 40.8147 27.9772 39.1575 26.9901 37.4443L26.9903 37.4443C26.0059 35.7356 25.0998 34.0125 24.2788 32.2991C25.0996 30.5818 26.0033 28.8569 26.9821 27.1514L26.9819 27.1516C27.9633 25.4417 28.9962 23.7925 30.0633 22.2224C31.9533 22.0789 33.8914 22.0039 35.85 22.0039L35.8501 22.0039C37.8176 22.0039 39.7581 22.0793 41.6476 22.2241C42.6984 23.7827 43.7243 25.4265 44.7096 27.137C45.706 28.8665 46.6214 30.5798 47.4492 32.2605C46.6239 33.9697 45.7106 35.7007 44.7185 37.4294ZM50.3189 6.96631C52.447 8.19946 53.2746 13.1729 51.9375 19.6943C51.8522 20.1106 51.7562 20.5344 51.6519 20.9639C49.0153 20.3525 46.1523 19.8977 43.1548 19.6152C41.4086 17.1165 39.599 14.845 37.7826 12.8782C38.271 12.4062 38.7586 11.9561 39.2442 11.5312C43.936 7.42847 48.321 5.80884 50.3189 6.96631Z" fill="#FFFFFF" fill-opacity="1.000000" fill-rule="nonzero"/>
	<path id="Vector" d="M35.8501 26.5315C38.9842 26.5315 41.5249 29.0845 41.5249 32.2336C41.5249 35.3828 38.9842 37.936 35.8501 37.936C32.716 37.936 30.1753 35.3828 30.1753 32.2336C30.1753 29.0845 32.716 26.5315 35.8501 26.5315Z" fill="#53C1DE" fill-opacity="1.000000" fill-rule="nonzero"/>
</svg>
