<svg width="30.000000" height="30.000000" viewBox="0 0 30 30" fill="none" xmlns="http://www.w3.org/2000/svg" xmlns:xlink="http://www.w3.org/1999/xlink">
	<desc>
			Created with Pixso.
	</desc>
	<defs/>
	<path d="M15 30C23.2863 30 30 23.2861 30 15C30 6.71387 23.2863 0 15 0C6.71375 0 0 6.71387 0 15C0 23.2861 6.71375 30 15 30ZM6.86377 14.6748L21.3262 9.09863C21.9975 8.85645 22.5837 9.2627 22.3663 10.2773L22.3675 10.2764L19.905 21.8774C19.7225 22.7002 19.2338 22.8999 18.55 22.5127L14.8 19.7485L12.9913 21.4912C12.7913 21.6914 12.6225 21.8599 12.235 21.8599L12.5012 18.0439L19.4512 11.7651C19.7537 11.4985 19.3837 11.3486 18.985 11.6138L10.3962 17.0215L6.69373 15.8662C5.89001 15.6113 5.8725 15.0625 6.86377 14.6748Z" fill="#000000" fill-opacity="1.000000" fill-rule="nonzero"/>
</svg>
