<svg width="19.786377" height="25.000000" viewBox="0 0 19.7864 25" fill="none" xmlns="http://www.w3.org/2000/svg" xmlns:xlink="http://www.w3.org/1999/xlink">
	<desc>
			Created with Pixso.
	</desc>
	<defs/>
	<path id="Vector" d="M17.1101 16.333L15.6429 15.9021L12.4507 13.8171L12.4507 13.3394C13.3749 12.6423 14.0096 11.5767 14.1275 10.3552C14.5911 10.2806 14.9462 9.87793 14.9462 9.39368L14.9462 8.07996C14.9462 8.07495 14.9457 8.06995 14.9454 8.06482L14.9454 6.40063C15.1301 6.26843 15.2473 6.0531 15.2473 5.81152L15.2473 4.28857L17.4502 3.91333C17.8123 3.85156 18.0727 3.56409 18.0983 3.19775C18.1237 2.8313 17.9058 2.5105 17.5559 2.39917L10.1293 0.0369873C9.97427 -0.0123291 9.81059 -0.0123291 9.65572 0.0368652L2.229 2.39917C1.87906 2.5105 1.66109 2.8313 1.68661 3.19763C1.70284 3.43042 1.81406 3.6311 1.98575 3.76257L1.98575 5.75415L1.96758 5.75415C1.54936 5.75415 1.20914 6.09436 1.20914 6.51257L1.20914 7.5011L0.719528 10.3748C0.634918 10.8718 1.01773 11.3267 1.5231 11.3267L3.18076 11.3267C3.68501 11.3267 4.06914 10.8728 3.98433 10.3748L3.49472 7.5011L3.49472 6.51257C3.49472 6.09436 3.1545 5.75415 2.73628 5.75415L2.71817 5.75415L2.71817 3.97864L4.53915 4.2887L4.53915 5.81152C4.53915 6.052 4.65581 6.26709 4.8396 6.39954L4.84029 8.08008L4.84029 9.39368C4.84029 9.87793 5.1954 10.2806 5.65894 10.3552C5.77686 11.576 6.41084 12.6411 7.33418 13.3383L7.33418 13.8182L4.14267 15.9028L2.67661 16.3333C1.10782 16.7937 9.15527e-05 18.2339 9.15527e-05 19.9082L9.15527e-05 20.9995C9.15527e-05 21.2018 0.164017 21.3657 0.366302 21.3657C0.568604 21.3657 0.732513 21.2019 0.732513 20.9995L0.732513 19.9082C0.732513 18.5886 1.61674 17.4075 2.8829 17.0359L4.24893 16.635L9.70625 19.8778C9.81705 19.9436 9.96362 19.9471 10.0804 19.8778L15.538 16.6348L16.9039 17.0358C18.1699 17.4075 19.0541 18.5885 19.0541 19.908L19.0541 23.4449C19.0541 23.8986 18.685 24.2677 18.2314 24.2677L16.6172 24.2677L16.6172 22.6892C16.6172 22.4869 16.4533 22.323 16.251 22.323C16.0488 22.323 15.8848 22.4868 15.8848 22.6892L15.8848 24.2677L3.90005 24.2677L3.90005 22.6892C3.90005 22.4869 3.73613 22.323 3.53384 22.323C3.33154 22.323 3.16763 22.4868 3.16763 22.6892L3.16763 24.2677L1.55518 24.2677C1.10152 24.2677 0.732422 23.8986 0.732422 23.4449L0.732422 22.7114C0.732422 22.5092 0.568512 22.3452 0.366211 22.3452C0.16391 22.3452 0 22.5092 0 22.7114L0 23.4448C0 24.3024 0.697601 25 1.55513 25L18.2313 25C19.0888 25 19.7864 24.3024 19.7864 23.4448L19.7864 19.9078C19.7864 18.2731 18.7165 16.8046 17.1101 16.333ZM3.18071 10.5942L1.5231 10.5942C1.47188 10.5942 1.43282 10.5486 1.4415 10.4977L1.88437 7.89832L2.81943 7.89832L3.2623 10.4977C3.27095 10.5483 3.23218 10.5942 3.18071 10.5942ZM2.7623 6.51257L2.7623 7.16589L1.94145 7.16589L1.94145 6.51257C1.94145 6.49817 1.95312 6.48645 1.96753 6.48645L2.73618 6.48645C2.75064 6.48645 2.7623 6.49817 2.7623 6.51257ZM8.5835 18.2212L8.72925 18.4453L4.99052 16.2238L7.36363 14.6737C7.47124 15.9364 7.88745 17.1515 8.5835 18.2212ZM8.58096 16.6404C9.44292 16.7629 10.343 16.7629 11.2055 16.6404C11.0388 17.0505 10.8335 17.4462 10.5891 17.8219L9.89322 18.8914L9.19736 17.8219C8.95297 17.4462 8.7476 17.0505 8.58096 16.6404ZM11.2029 18.2212C11.899 17.1515 12.3152 15.9364 12.4228 14.6737L14.7959 16.2236L11.0572 18.4453L11.2029 18.2212ZM13.3451 6.53711L14.213 6.53711L14.213 7.71375L13.7822 7.71375C13.5412 7.71375 13.345 7.51758 13.345 7.27661L13.345 6.53711L13.3451 6.53711ZM2.45097 3.09717L9.87778 0.734863C9.8873 0.731812 9.89755 0.731689 9.90723 0.734863L17.334 3.09717C17.3493 3.10205 17.3704 3.10864 17.3677 3.14673C17.365 3.18481 17.3433 3.1886 17.3273 3.19128L14.8719 3.6095L13.95 3.49548C13.7494 3.47058 13.5665 3.61328 13.5417 3.81396C13.5168 4.01465 13.6595 4.19751 13.8602 4.22229L14.5149 4.30334L14.5149 5.80469L5.27153 5.80432L5.27153 4.30322L9.06094 3.83435C9.61288 3.76611 10.1725 3.76611 10.724 3.83435L12.1582 4.01172C12.3589 4.03662 12.5418 3.89404 12.5667 3.69336C12.5915 3.49255 12.4489 3.30981 12.2482 3.28491L10.814 3.10754C10.2028 3.03186 9.58267 3.03186 8.97104 3.10754L4.91373 3.60962L2.45752 3.19128C2.4416 3.1886 2.41988 3.18481 2.41719 3.14673C2.41455 3.10864 2.43559 3.10193 2.45097 3.09717ZM5.57246 7.71375L5.57198 6.53711L6.44136 6.53711L6.44136 7.27661C6.44136 7.51758 6.24527 7.71375 6.00415 7.71375L5.57246 7.71375L5.57246 7.71375ZM6.37846 10.167C6.35962 9.8689 6.11177 9.63525 5.81425 9.63525C5.681 9.63525 5.5726 9.52686 5.5726 9.39368L5.5726 8.44617L6.00415 8.44617C6.64902 8.44617 7.17374 7.92151 7.17374 7.27661L7.17374 6.53711L12.6127 6.53711L12.6127 7.27661C12.6127 7.92151 13.1374 8.44617 13.7822 8.44617L14.2138 8.44617L14.2138 9.39368C14.2138 9.52686 14.1054 9.63525 13.9721 9.63525C13.6746 9.63525 13.4268 9.8689 13.4079 10.1671C13.2913 12.0161 11.7474 13.4647 9.89316 13.4647C8.03891 13.4647 6.49512 12.0161 6.37846 10.167ZM9.89322 14.197C10.5445 14.197 11.1636 14.0481 11.7183 13.7833L11.7183 14.0154C11.7183 14.6415 11.6338 15.2592 11.4712 15.8549C10.476 16.0446 9.35083 16.0522 8.31523 15.8549C8.15259 15.2592 8.06812 14.6416 8.06812 14.0154C8.06812 14.0077 8.06705 14.0001 8.06656 13.9924C8.06645 13.9908 8.0666 13.9894 8.0665 13.9879L8.0665 13.7826C8.62163 14.0479 9.24126 14.197 9.89322 14.197Z" fill="#000000" fill-opacity="1.000000" fill-rule="nonzero"/>
</svg>
