<svg width="25.000000" height="23.452576" viewBox="0 0 25 23.4526" fill="none" xmlns="http://www.w3.org/2000/svg" xmlns:xlink="http://www.w3.org/1999/xlink">
	<desc>
			Created with Pixso.
	</desc>
	<defs/>
	<path id="Vector" d="M0 0L0 20.5204L8.02405 20.5204L8.02405 21.9877L6.55743 21.9877L6.55743 23.4526L18.4425 23.4526L18.4425 21.9877L16.976 21.9877L16.976 20.5204L25 20.5204L25 0L0 0ZM15.511 21.9877L9.48895 21.9877L9.48895 20.5204L15.511 20.5204L15.511 21.9877L15.511 21.9877ZM23.5351 19.0555L1.4649 19.0555L1.4649 16.1222L23.535 16.1222L23.535 19.0555L23.5351 19.0555ZM23.5351 14.6573L1.4649 14.6573L1.4649 1.46497L23.535 1.46497L23.535 14.6573L23.5351 14.6573Z" fill="#000000" fill-opacity="1.000000" fill-rule="nonzero"/>
	<path id="Vector" d="M9.95813 5.41339L8.9223 4.37756L5.23877 8.0611L8.9223 11.7446L9.95813 10.7087L7.31042 8.0611L9.95813 5.41339Z" fill="#000000" fill-opacity="1.000000" fill-rule="nonzero"/>
	<path id="Vector" d="M16.0777 4.37756L15.0419 5.41339L17.6896 8.0611L15.0419 10.7087L16.0777 11.7446L19.7612 8.0611L16.0777 4.37756Z" fill="#000000" fill-opacity="1.000000" fill-rule="nonzero"/>
	<path id="Vector" d="M10.9313 12.193L12.6319 3.64398L14.0687 3.92981L12.3682 12.4788L10.9313 12.193Z" fill="#000000" fill-opacity="1.000000" fill-rule="evenodd"/>
</svg>
